<mxfile host="app.diagrams.net" modified="2022-05-23T03:42:48.740Z" agent="5.0 (Windows NT 10.0; Win64; x64) AppleWebKit/537.36 (KHTML, like Gecko) Chrome/101.0.4951.67 Safari/537.36" etag="i6JsHsQ810khK3z4cLS1" version="18.0.8" type="github">
  <diagram id="vCJKHM8MTHylu7gDaNj6" name="Page-1">
    <mxGraphModel dx="1422" dy="762" grid="1" gridSize="10" guides="1" tooltips="1" connect="1" arrows="1" fold="1" page="1" pageScale="1" pageWidth="827" pageHeight="1169" math="0" shadow="0">
      <root>
        <mxCell id="0" />
        <mxCell id="1" parent="0" />
        <mxCell id="g4FmbD9YvOIgmVQWyCMX-17" value="&lt;font style=&quot;font-size: 20px;&quot;&gt;App.vue&lt;/font&gt;" style="rounded=0;whiteSpace=wrap;html=1;" parent="1" vertex="1">
          <mxGeometry x="260" y="10" width="170" height="110" as="geometry" />
        </mxCell>
        <mxCell id="g4FmbD9YvOIgmVQWyCMX-20" value="&lt;font style=&quot;font-size: 20px;&quot;&gt;router-view&lt;br&gt;&lt;/font&gt;" style="rounded=0;whiteSpace=wrap;html=1;" parent="1" vertex="1">
          <mxGeometry x="260" y="140" width="170" height="110" as="geometry" />
        </mxCell>
        <mxCell id="g4FmbD9YvOIgmVQWyCMX-21" value="&lt;font style=&quot;font-size: 20px;&quot;&gt;router-link&lt;/font&gt;" style="rounded=0;whiteSpace=wrap;html=1;" parent="1" vertex="1">
          <mxGeometry x="60" y="140" width="170" height="110" as="geometry" />
        </mxCell>
        <mxCell id="g4FmbD9YvOIgmVQWyCMX-22" value="&lt;font style=&quot;font-size: 20px;&quot;&gt;SearchView.vue&lt;br&gt;&lt;/font&gt;" style="rounded=0;whiteSpace=wrap;html=1;" parent="1" vertex="1">
          <mxGeometry x="260" y="280" width="170" height="110" as="geometry" />
        </mxCell>
        <mxCell id="g4FmbD9YvOIgmVQWyCMX-23" value="&lt;font style=&quot;font-size: 20px;&quot;&gt;HomeView.vue&lt;br&gt;&lt;/font&gt;" style="rounded=0;whiteSpace=wrap;html=1;" parent="1" vertex="1">
          <mxGeometry x="60" y="280" width="170" height="110" as="geometry" />
        </mxCell>
        <mxCell id="g4FmbD9YvOIgmVQWyCMX-24" value="&lt;font style=&quot;font-size: 20px;&quot;&gt;EvaluateView.vue&lt;br&gt;&lt;/font&gt;" style="rounded=0;whiteSpace=wrap;html=1;" parent="1" vertex="1">
          <mxGeometry x="460" y="280" width="170" height="110" as="geometry" />
        </mxCell>
        <mxCell id="g4FmbD9YvOIgmVQWyCMX-25" value="&lt;font style=&quot;&quot;&gt;&lt;font style=&quot;font-size: 15px;&quot;&gt;WishedMovieView.vue&lt;/font&gt;&lt;br&gt;&lt;/font&gt;" style="rounded=0;whiteSpace=wrap;html=1;" parent="1" vertex="1">
          <mxGeometry x="657" y="280" width="170" height="110" as="geometry" />
        </mxCell>
        <mxCell id="g4FmbD9YvOIgmVQWyCMX-26" value="&lt;font style=&quot;&quot;&gt;&lt;font style=&quot;font-size: 15px;&quot;&gt;EvaluatedMovieView.vue&lt;/font&gt;&lt;br&gt;&lt;/font&gt;" style="rounded=0;whiteSpace=wrap;html=1;" parent="1" vertex="1">
          <mxGeometry x="860" y="280" width="190" height="110" as="geometry" />
        </mxCell>
        <mxCell id="g4FmbD9YvOIgmVQWyCMX-27" value="&lt;font style=&quot;font-size: 20px;&quot;&gt;MovieCard.vue&lt;br&gt;&lt;/font&gt;" style="rounded=0;whiteSpace=wrap;html=1;" parent="1" vertex="1">
          <mxGeometry x="60" y="420" width="170" height="110" as="geometry" />
        </mxCell>
        <mxCell id="g4FmbD9YvOIgmVQWyCMX-28" value="&lt;font style=&quot;font-size: 20px;&quot;&gt;MovieCard.vue&lt;br&gt;&lt;/font&gt;" style="rounded=0;whiteSpace=wrap;html=1;" parent="1" vertex="1">
          <mxGeometry x="70" y="430" width="170" height="110" as="geometry" />
        </mxCell>
        <mxCell id="g4FmbD9YvOIgmVQWyCMX-29" value="&lt;font style=&quot;font-size: 20px;&quot;&gt;MovieCard.vue&lt;br&gt;&lt;/font&gt;" style="rounded=0;whiteSpace=wrap;html=1;" parent="1" vertex="1">
          <mxGeometry x="80" y="440" width="170" height="110" as="geometry" />
        </mxCell>
        <mxCell id="g4FmbD9YvOIgmVQWyCMX-30" value="&lt;font style=&quot;font-size: 20px;&quot;&gt;MovieCard.vue&lt;br&gt;&lt;/font&gt;" style="rounded=0;whiteSpace=wrap;html=1;" parent="1" vertex="1">
          <mxGeometry x="260" y="420" width="170" height="110" as="geometry" />
        </mxCell>
        <mxCell id="g4FmbD9YvOIgmVQWyCMX-31" value="&lt;font style=&quot;font-size: 20px;&quot;&gt;MovieCard.vue&lt;br&gt;&lt;/font&gt;" style="rounded=0;whiteSpace=wrap;html=1;" parent="1" vertex="1">
          <mxGeometry x="270" y="430" width="170" height="110" as="geometry" />
        </mxCell>
        <mxCell id="g4FmbD9YvOIgmVQWyCMX-32" value="&lt;font style=&quot;font-size: 20px;&quot;&gt;MovieCard.vue&lt;br&gt;&lt;/font&gt;" style="rounded=0;whiteSpace=wrap;html=1;" parent="1" vertex="1">
          <mxGeometry x="280" y="440" width="170" height="110" as="geometry" />
        </mxCell>
        <mxCell id="g4FmbD9YvOIgmVQWyCMX-33" value="&lt;font style=&quot;font-size: 20px;&quot;&gt;EvaluateCard.vue&lt;br&gt;&lt;/font&gt;" style="rounded=0;whiteSpace=wrap;html=1;" parent="1" vertex="1">
          <mxGeometry x="460" y="420" width="170" height="110" as="geometry" />
        </mxCell>
        <mxCell id="g4FmbD9YvOIgmVQWyCMX-34" value="&lt;font style=&quot;font-size: 20px;&quot;&gt;EvaluateCard.vue&lt;br&gt;&lt;/font&gt;" style="rounded=0;whiteSpace=wrap;html=1;" parent="1" vertex="1">
          <mxGeometry x="470" y="430" width="170" height="110" as="geometry" />
        </mxCell>
        <mxCell id="g4FmbD9YvOIgmVQWyCMX-35" value="&lt;font style=&quot;font-size: 20px;&quot;&gt;EvaluateCard.vue&lt;br&gt;&lt;/font&gt;" style="rounded=0;whiteSpace=wrap;html=1;" parent="1" vertex="1">
          <mxGeometry x="480" y="440" width="170" height="110" as="geometry" />
        </mxCell>
        <mxCell id="g4FmbD9YvOIgmVQWyCMX-36" value="&lt;font style=&quot;font-size: 20px;&quot;&gt;MovieCard.vue&lt;br&gt;&lt;/font&gt;" style="rounded=0;whiteSpace=wrap;html=1;" parent="1" vertex="1">
          <mxGeometry x="657" y="420" width="170" height="110" as="geometry" />
        </mxCell>
        <mxCell id="g4FmbD9YvOIgmVQWyCMX-37" value="&lt;font style=&quot;font-size: 20px;&quot;&gt;MovieCard.vue&lt;br&gt;&lt;/font&gt;" style="rounded=0;whiteSpace=wrap;html=1;" parent="1" vertex="1">
          <mxGeometry x="667" y="430" width="170" height="110" as="geometry" />
        </mxCell>
        <mxCell id="g4FmbD9YvOIgmVQWyCMX-38" value="&lt;font style=&quot;font-size: 20px;&quot;&gt;MovieCard.vue&lt;br&gt;&lt;/font&gt;" style="rounded=0;whiteSpace=wrap;html=1;" parent="1" vertex="1">
          <mxGeometry x="677" y="440" width="170" height="110" as="geometry" />
        </mxCell>
        <mxCell id="g4FmbD9YvOIgmVQWyCMX-39" value="&lt;font style=&quot;font-size: 20px;&quot;&gt;MovieCard.vue&lt;br&gt;&lt;/font&gt;" style="rounded=0;whiteSpace=wrap;html=1;" parent="1" vertex="1">
          <mxGeometry x="870" y="420" width="170" height="110" as="geometry" />
        </mxCell>
        <mxCell id="g4FmbD9YvOIgmVQWyCMX-40" value="&lt;font style=&quot;font-size: 20px;&quot;&gt;MovieCard.vue&lt;br&gt;&lt;/font&gt;" style="rounded=0;whiteSpace=wrap;html=1;" parent="1" vertex="1">
          <mxGeometry x="880" y="430" width="170" height="110" as="geometry" />
        </mxCell>
        <mxCell id="g4FmbD9YvOIgmVQWyCMX-41" value="&lt;font style=&quot;font-size: 20px;&quot;&gt;MovieCard.vue&lt;br&gt;&lt;/font&gt;" style="rounded=0;whiteSpace=wrap;html=1;" parent="1" vertex="1">
          <mxGeometry x="890" y="440" width="170" height="110" as="geometry" />
        </mxCell>
        <mxCell id="g4FmbD9YvOIgmVQWyCMX-44" value="" style="endArrow=none;html=1;rounded=0;fontSize=20;" parent="1" edge="1">
          <mxGeometry width="50" height="50" relative="1" as="geometry">
            <mxPoint x="346" y="140" as="sourcePoint" />
            <mxPoint x="346" y="120" as="targetPoint" />
          </mxGeometry>
        </mxCell>
        <mxCell id="g4FmbD9YvOIgmVQWyCMX-47" value="" style="endArrow=none;html=1;rounded=0;fontSize=20;entryX=0.5;entryY=1;entryDx=0;entryDy=0;exitX=0.5;exitY=0;exitDx=0;exitDy=0;" parent="1" source="g4FmbD9YvOIgmVQWyCMX-22" target="g4FmbD9YvOIgmVQWyCMX-20" edge="1">
          <mxGeometry width="50" height="50" relative="1" as="geometry">
            <mxPoint x="320" y="290" as="sourcePoint" />
            <mxPoint x="370" y="240" as="targetPoint" />
          </mxGeometry>
        </mxCell>
        <mxCell id="g4FmbD9YvOIgmVQWyCMX-49" value="" style="endArrow=none;html=1;rounded=0;fontSize=20;exitX=0.5;exitY=0;exitDx=0;exitDy=0;" parent="1" edge="1">
          <mxGeometry width="50" height="50" relative="1" as="geometry">
            <mxPoint x="141" y="140" as="sourcePoint" />
            <mxPoint x="346" y="130" as="targetPoint" />
            <Array as="points">
              <mxPoint x="141" y="130" />
            </Array>
          </mxGeometry>
        </mxCell>
        <mxCell id="g4FmbD9YvOIgmVQWyCMX-52" value="" style="endArrow=none;html=1;rounded=0;fontSize=20;exitX=0.5;exitY=0;exitDx=0;exitDy=0;entryX=0.5;entryY=0;entryDx=0;entryDy=0;" parent="1" source="g4FmbD9YvOIgmVQWyCMX-23" target="g4FmbD9YvOIgmVQWyCMX-26" edge="1">
          <mxGeometry width="50" height="50" relative="1" as="geometry">
            <mxPoint x="120" y="300" as="sourcePoint" />
            <mxPoint x="960" y="260" as="targetPoint" />
            <Array as="points">
              <mxPoint x="145" y="260" />
              <mxPoint x="955" y="260" />
            </Array>
          </mxGeometry>
        </mxCell>
        <mxCell id="g4FmbD9YvOIgmVQWyCMX-54" value="" style="endArrow=none;html=1;rounded=0;fontSize=20;" parent="1" edge="1">
          <mxGeometry width="50" height="50" relative="1" as="geometry">
            <mxPoint x="550" y="280" as="sourcePoint" />
            <mxPoint x="550" y="260" as="targetPoint" />
          </mxGeometry>
        </mxCell>
        <mxCell id="g4FmbD9YvOIgmVQWyCMX-55" value="" style="endArrow=none;html=1;rounded=0;fontSize=20;exitX=0.5;exitY=0;exitDx=0;exitDy=0;" parent="1" source="g4FmbD9YvOIgmVQWyCMX-25" edge="1">
          <mxGeometry width="50" height="50" relative="1" as="geometry">
            <mxPoint x="720" y="310" as="sourcePoint" />
            <mxPoint x="742" y="260" as="targetPoint" />
          </mxGeometry>
        </mxCell>
        <mxCell id="g4FmbD9YvOIgmVQWyCMX-56" value="" style="endArrow=none;html=1;rounded=0;fontSize=20;entryX=0.5;entryY=1;entryDx=0;entryDy=0;exitX=0.5;exitY=0;exitDx=0;exitDy=0;" parent="1" source="g4FmbD9YvOIgmVQWyCMX-27" target="g4FmbD9YvOIgmVQWyCMX-23" edge="1">
          <mxGeometry width="50" height="50" relative="1" as="geometry">
            <mxPoint x="130" y="430" as="sourcePoint" />
            <mxPoint x="180" y="380" as="targetPoint" />
          </mxGeometry>
        </mxCell>
        <mxCell id="g4FmbD9YvOIgmVQWyCMX-57" value="" style="endArrow=none;html=1;rounded=0;fontSize=20;entryX=0.5;entryY=1;entryDx=0;entryDy=0;exitX=0.5;exitY=0;exitDx=0;exitDy=0;" parent="1" source="g4FmbD9YvOIgmVQWyCMX-30" target="g4FmbD9YvOIgmVQWyCMX-22" edge="1">
          <mxGeometry width="50" height="50" relative="1" as="geometry">
            <mxPoint x="320" y="430" as="sourcePoint" />
            <mxPoint x="370" y="380" as="targetPoint" />
          </mxGeometry>
        </mxCell>
        <mxCell id="g4FmbD9YvOIgmVQWyCMX-58" value="" style="endArrow=none;html=1;rounded=0;fontSize=20;entryX=0.5;entryY=1;entryDx=0;entryDy=0;" parent="1" target="g4FmbD9YvOIgmVQWyCMX-24" edge="1">
          <mxGeometry width="50" height="50" relative="1" as="geometry">
            <mxPoint x="545" y="420" as="sourcePoint" />
            <mxPoint x="590" y="380" as="targetPoint" />
          </mxGeometry>
        </mxCell>
        <mxCell id="g4FmbD9YvOIgmVQWyCMX-59" value="" style="endArrow=none;html=1;rounded=0;fontSize=20;entryX=0.5;entryY=1;entryDx=0;entryDy=0;exitX=0.5;exitY=0;exitDx=0;exitDy=0;" parent="1" source="g4FmbD9YvOIgmVQWyCMX-36" target="g4FmbD9YvOIgmVQWyCMX-25" edge="1">
          <mxGeometry width="50" height="50" relative="1" as="geometry">
            <mxPoint x="730" y="430" as="sourcePoint" />
            <mxPoint x="780" y="380" as="targetPoint" />
          </mxGeometry>
        </mxCell>
        <mxCell id="g4FmbD9YvOIgmVQWyCMX-62" value="" style="endArrow=none;html=1;rounded=0;fontSize=20;entryX=0.5;entryY=1;entryDx=0;entryDy=0;exitX=0.5;exitY=0;exitDx=0;exitDy=0;" parent="1" source="g4FmbD9YvOIgmVQWyCMX-39" target="g4FmbD9YvOIgmVQWyCMX-26" edge="1">
          <mxGeometry width="50" height="50" relative="1" as="geometry">
            <mxPoint x="930" y="430" as="sourcePoint" />
            <mxPoint x="980" y="380" as="targetPoint" />
          </mxGeometry>
        </mxCell>
        <mxCell id="g4FmbD9YvOIgmVQWyCMX-63" value="MovieDetailView.vue" style="rounded=0;whiteSpace=wrap;html=1;fontSize=20;" parent="1" vertex="1">
          <mxGeometry x="260" y="600" width="200" height="120" as="geometry" />
        </mxCell>
        <mxCell id="g4FmbD9YvOIgmVQWyCMX-64" value="" style="endArrow=classic;html=1;rounded=0;fontSize=20;exitX=0.5;exitY=1;exitDx=0;exitDy=0;entryX=0.5;entryY=0;entryDx=0;entryDy=0;" parent="1" source="g4FmbD9YvOIgmVQWyCMX-29" target="g4FmbD9YvOIgmVQWyCMX-63" edge="1">
          <mxGeometry width="50" height="50" relative="1" as="geometry">
            <mxPoint x="390" y="730" as="sourcePoint" />
            <mxPoint x="440" y="680" as="targetPoint" />
          </mxGeometry>
        </mxCell>
        <mxCell id="g4FmbD9YvOIgmVQWyCMX-66" value="MovieDetailCard.vue" style="rounded=0;whiteSpace=wrap;html=1;fontSize=20;" parent="1" vertex="1">
          <mxGeometry x="20" y="790" width="200" height="120" as="geometry" />
        </mxCell>
        <mxCell id="g4FmbD9YvOIgmVQWyCMX-67" value="MovieIframe.vue" style="rounded=0;whiteSpace=wrap;html=1;fontSize=20;" parent="1" vertex="1">
          <mxGeometry x="260" y="790" width="200" height="120" as="geometry" />
        </mxCell>
        <mxCell id="g4FmbD9YvOIgmVQWyCMX-68" value="CommentList.vue" style="rounded=0;whiteSpace=wrap;html=1;fontSize=20;" parent="1" vertex="1">
          <mxGeometry x="520" y="790" width="200" height="120" as="geometry" />
        </mxCell>
        <mxCell id="g4FmbD9YvOIgmVQWyCMX-69" value="" style="endArrow=none;html=1;rounded=0;fontSize=20;entryX=0.5;entryY=1;entryDx=0;entryDy=0;exitX=0.5;exitY=0;exitDx=0;exitDy=0;" parent="1" source="g4FmbD9YvOIgmVQWyCMX-67" target="g4FmbD9YvOIgmVQWyCMX-63" edge="1">
          <mxGeometry width="50" height="50" relative="1" as="geometry">
            <mxPoint x="340" y="790" as="sourcePoint" />
            <mxPoint x="390" y="740" as="targetPoint" />
          </mxGeometry>
        </mxCell>
        <mxCell id="g4FmbD9YvOIgmVQWyCMX-70" value="" style="endArrow=none;html=1;rounded=0;fontSize=20;entryX=0.5;entryY=0;entryDx=0;entryDy=0;exitX=0.5;exitY=0;exitDx=0;exitDy=0;" parent="1" source="g4FmbD9YvOIgmVQWyCMX-66" target="g4FmbD9YvOIgmVQWyCMX-68" edge="1">
          <mxGeometry width="50" height="50" relative="1" as="geometry">
            <mxPoint x="90" y="800" as="sourcePoint" />
            <mxPoint x="140" y="750" as="targetPoint" />
            <Array as="points">
              <mxPoint x="120" y="760" />
              <mxPoint x="620" y="760" />
            </Array>
          </mxGeometry>
        </mxCell>
        <mxCell id="g4FmbD9YvOIgmVQWyCMX-72" value="CommentListItem.vue" style="rounded=0;whiteSpace=wrap;html=1;fontSize=20;" parent="1" vertex="1">
          <mxGeometry x="790" y="980" width="200" height="120" as="geometry" />
        </mxCell>
        <mxCell id="g4FmbD9YvOIgmVQWyCMX-73" value="CommentForm.vue" style="rounded=0;whiteSpace=wrap;html=1;fontSize=20;" parent="1" vertex="1">
          <mxGeometry x="520" y="980" width="200" height="120" as="geometry" />
        </mxCell>
        <mxCell id="g4FmbD9YvOIgmVQWyCMX-74" value="CommentListItem.vue" style="rounded=0;whiteSpace=wrap;html=1;fontSize=20;" parent="1" vertex="1">
          <mxGeometry x="800" y="990" width="200" height="120" as="geometry" />
        </mxCell>
        <mxCell id="g4FmbD9YvOIgmVQWyCMX-75" value="CommentListItem.vue" style="rounded=0;whiteSpace=wrap;html=1;fontSize=20;" parent="1" vertex="1">
          <mxGeometry x="810" y="1000" width="200" height="120" as="geometry" />
        </mxCell>
        <mxCell id="g4FmbD9YvOIgmVQWyCMX-76" value="" style="endArrow=none;html=1;rounded=0;fontSize=20;entryX=0.5;entryY=1;entryDx=0;entryDy=0;exitX=0.5;exitY=0;exitDx=0;exitDy=0;" parent="1" source="g4FmbD9YvOIgmVQWyCMX-73" target="g4FmbD9YvOIgmVQWyCMX-68" edge="1">
          <mxGeometry width="50" height="50" relative="1" as="geometry">
            <mxPoint x="390" y="1030" as="sourcePoint" />
            <mxPoint x="440" y="980" as="targetPoint" />
          </mxGeometry>
        </mxCell>
        <mxCell id="g4FmbD9YvOIgmVQWyCMX-77" value="" style="endArrow=none;html=1;rounded=0;fontSize=20;entryX=0.5;entryY=0;entryDx=0;entryDy=0;" parent="1" target="g4FmbD9YvOIgmVQWyCMX-72" edge="1">
          <mxGeometry width="50" height="50" relative="1" as="geometry">
            <mxPoint x="620" y="980" as="sourcePoint" />
            <mxPoint x="920" y="930" as="targetPoint" />
            <Array as="points">
              <mxPoint x="620" y="960" />
              <mxPoint x="890" y="960" />
            </Array>
          </mxGeometry>
        </mxCell>
        <mxCell id="g4FmbD9YvOIgmVQWyCMX-79" value="&lt;font style=&quot;font-size: 20px;&quot;&gt;LoginView.vue&lt;br&gt;&lt;/font&gt;" style="rounded=0;whiteSpace=wrap;html=1;" parent="1" vertex="1">
          <mxGeometry x="1115" y="280" width="170" height="110" as="geometry" />
        </mxCell>
        <mxCell id="g4FmbD9YvOIgmVQWyCMX-80" value="&lt;font style=&quot;font-size: 20px;&quot;&gt;LogoutView.vue&lt;br&gt;&lt;/font&gt;" style="rounded=0;whiteSpace=wrap;html=1;" parent="1" vertex="1">
          <mxGeometry x="1360" y="280" width="170" height="110" as="geometry" />
        </mxCell>
        <mxCell id="g4FmbD9YvOIgmVQWyCMX-81" value="&lt;font style=&quot;font-size: 20px;&quot;&gt;SignupView.vue&lt;br&gt;&lt;/font&gt;" style="rounded=0;whiteSpace=wrap;html=1;" parent="1" vertex="1">
          <mxGeometry x="1595" y="280" width="170" height="110" as="geometry" />
        </mxCell>
        <mxCell id="g4FmbD9YvOIgmVQWyCMX-82" value="" style="endArrow=none;html=1;rounded=0;fontSize=20;entryX=0.5;entryY=0;entryDx=0;entryDy=0;exitX=0.5;exitY=0;exitDx=0;exitDy=0;" parent="1" source="g4FmbD9YvOIgmVQWyCMX-79" target="g4FmbD9YvOIgmVQWyCMX-81" edge="1">
          <mxGeometry width="50" height="50" relative="1" as="geometry">
            <mxPoint x="1210" y="330" as="sourcePoint" />
            <mxPoint x="1260" y="280" as="targetPoint" />
            <Array as="points">
              <mxPoint x="1200" y="260" />
              <mxPoint x="1680" y="260" />
            </Array>
          </mxGeometry>
        </mxCell>
        <mxCell id="g4FmbD9YvOIgmVQWyCMX-83" value="" style="endArrow=none;html=1;rounded=0;fontSize=20;" parent="1" edge="1">
          <mxGeometry width="50" height="50" relative="1" as="geometry">
            <mxPoint x="950" y="260" as="sourcePoint" />
            <mxPoint x="1210" y="260" as="targetPoint" />
          </mxGeometry>
        </mxCell>
        <mxCell id="g4FmbD9YvOIgmVQWyCMX-84" value="" style="endArrow=none;html=1;rounded=0;fontSize=20;" parent="1" edge="1">
          <mxGeometry width="50" height="50" relative="1" as="geometry">
            <mxPoint x="1440" y="280" as="sourcePoint" />
            <mxPoint x="1440" y="260" as="targetPoint" />
          </mxGeometry>
        </mxCell>
      </root>
    </mxGraphModel>
  </diagram>
</mxfile>
